{"title":"The.Keeping.Room.2014.1080p.WEBRip.x264.AAC2.0-FGT","uid":12953414,"size":3162521082,"categoryP":"video","categoryS":"hd___movies","magnet":"?xt=urn:btih:c287341fd894db9529b089810f311c9308f328a8&amp;dn=The.Keeping.Room.2014.1080p.WEBRip.x264.AAC2.0-FGT&amp;tr=udp%3A%2F%2Ftracker.leechers-paradise.org%3A6969&amp;tr=udp%3A%2F%2Fzer0day.ch%3A1337&amp;tr=udp%3A%2F%2Fopen.demonii.com%3A1337&amp;tr=udp%3A%2F%2Ftracker.coppersurfer.tk%3A6969&amp;tr=udp%3A%2F%2Fexodus.desync.com%3A6969","seeders":0,"leechers":0,"uploader":null,"files":3,"time":1449760433,"description":"Video\r\nID                                       : 1\r\nFormat                                   : AVC\r\nFormat/Info                              : Advanced Video Codec\r\nFormat profile                           :   \r\nFormat settings, CABAC                   : Yes\r\nFormat settings, ReFrames                : 4 frames\r\nCodec ID                                 : avc1\r\nCodec ID/Info                            : Advanced Video Coding\r\nDuration                                 : 1h 34mn\r\nBit rate                                 : 4 223 Kbps\r\nNominal bit rate                         : 4 500 Kbps\r\nWidth                                    : 1 920 pixels\r\nHeight                                   : 1 036 pixels\r\nDisplay aspect ratio                     : 1.85:1\r\nFrame rate mode                          : Constant\r\nFrame rate                               : 23.976 fps\r\nColor space                              : YUV\r\nChroma subsampling                       : 4:2:0\r\nBit depth                                : 8 bits\r\nScan type                                : Progressive\r\nBits/(Pixel*Frame)                       : 0.089\r\nStream size                              : 2.79 GiB (95%)\r\nTitle                                    : The.Keeping.Room.2014.1080p.WEBRip.x264.AAC2.0-FGT\r\nWriting library                          : x264 core 148 r2601 a0cd7d3\r\nEncoding settings                        : cabac=1 / ref=4 / deblock=1:-2:-2 / analyse=0x3:0x113 / me=umh / subme=7 / psy=1 / psy_rd=1.00:0.15 / mixed_ref=1 / me_range=16 / chroma_me=1 / trellis=2 / 8x8dct=1 / cqm=0 / deadzone=21,11 / fast_pskip=1 / chroma_qp_offset=-3 / threads=8 / lookahead_threads=2 / sliced_threads=0 / nr=0 / decimate=1 / interlaced=0 / bluray_compat=0 / constrained_intra=0 / bframes=3 / b_pyramid=2 / b_adapt=2 / b_bias=0 / direct=3 / weightb=1 / open_gop=0 / weightp=2 / keyint=250 / keyint_min=25 / scenecut=40 / intra_refresh=0 / rc_lookahead=50 / rc=abr / mbtree=1 / bitrate=4500 / ratetol=1.0 / qcomp=0.60 / qpmin=0 / qpmax=69 / qpstep=4 / vbv_maxrate=31250 / vbv_bufsize=31250 / nal_hrd=none / filler=0 / ip_ratio=1.40 / aq=1:1.00\r\nLanguage                                 : English\r\n\r\nAudio\r\nID                                       : 2\r\nFormat                                   : AAC\r\nFormat/Info                              : Advanced Audio Codec\r\nFormat profile                           : LC\r\nCodec ID                                 : 40\r\nDuration                                 : 1h 34mn\r\nBit rate mode                            : Variable\r\nBit rate                                 : 224 Kbps\r\nMaximum bit rate                         : 31.3 Mbps\r\nChannel(s)                               : 2 channels\r\nChannel positions                        : Front: L R\r\nSampling rate                            : 48.0 KHz\r\nCompression mode                         : Lossy\r\nStream size                              : 152 MiB (5%)\r\nTitle                                    : The.Keeping.Room.2014.1080p.WEBRip.x264.AAC2.0-FGT\r\nLanguage                                 : English","torrent":{"xt":"urn:btih:c287341fd894db9529b089810f311c9308f328a8","amp;dn":"The.Keeping.Room.2014.1080p.WEBRip.x264.AAC2.0-FGT","amp;tr":["udp%3A%2F%2Ftracker.leechers-paradise.org%3A6969","udp%3A%2F%2Fzer0day.ch%3A1337","udp%3A%2F%2Fopen.demonii.com%3A1337","udp%3A%2F%2Ftracker.coppersurfer.tk%3A6969","udp%3A%2F%2Fexodus.desync.com%3A6969"],"infoHash":"c287341fd894db9529b089810f311c9308f328a8","infoHashBuffer":{"type":"Buffer","data":[194,135,52,31,216,148,219,149,41,176,137,129,15,49,28,147,8,243,40,168]},"announce":[],"urlList":[]}}